<svg xmlns="http://www.w3.org/2000/svg" viewBox="0 0 32 32" width="32" height="32">
  <defs>
    <linearGradient id="bg" x1="0%" y1="0%" x2="100%" y2="100%">
      <stop offset="0%" stop-color="#5A9E8F"/>
      <stop offset="100%" stop-color="#C48B6F"/>
    </linearGradient>
  </defs>
  <rect width="32" height="32" rx="8" ry="8" fill="url(#bg)"/>
  <!-- Cursive "A" in white -->
  <path d="M8,24 Q8,22 10,18 Q12,14 14,10 Q15,8 16,8 Q17,8 17,10 Q17,12 18,14 Q19,16 20,18 Q22,22 22,24 Q22,25 21,25 Q20,25 19.5,23 L18,19 Q17,17 16,17 Q15,17 14,19 L12.5,23 Q12,25 11,25 Q10,25 10,24 M13,18 Q14.5,15 16,15 Q17.5,15 19,18" fill="none" stroke="#FFFFFF" stroke-width="1.8" stroke-linecap="round" stroke-linejoin="round"/>
  <!-- Cursive tail/flourish -->
  <path d="M21.5,24 Q23,23 24,21 Q24.5,20 24,20 Q23,20.5 22,22" fill="none" stroke="#FFFFFF" stroke-width="1.2" stroke-linecap="round"/>
</svg>
